<?xml version="1.0" encoding="utf-8"?>
<!-- Generator: Adobe Illustrator 26.0.0, SVG Export Plug-In . SVG Version: 6.00 Build 0)  -->
<svg version="1.1" id="Layer_1" xmlns="http://www.w3.org/2000/svg" xmlns:xlink="http://www.w3.org/1999/xlink" x="0px" y="0px"
	 viewBox="0 0 24 24" style="enable-background:new 0 0 24 24;" xml:space="preserve">
<style type="text/css">
	.st0{fill:none;}
</style>
<g>
	<path class="st0" d="M0,0h24v24H0V0z"/>
</g>
<g>
	<path d="M14,12c0,0.7-0.4,1.4-1,1.7V22h-2v-8.3c-0.6-0.4-1-1-1-1.7c0-1.1,0.9-2,2-2S14,10.9,14,12z M12,6c-3.3,0-6,2.7-6,6
		c0,1.7,0.8,3.3,1.9,4.4L9.4,15C8.5,14.2,8,13.2,8,12c0-2.2,1.8-4,4-4s4,1.8,4,4c0,1.2-0.5,2.2-1.4,3l1.4,1.4
		c1.2-1.1,1.9-2.7,1.9-4.4C18,8.7,15.3,6,12,6z M12,2C6.5,2,2,6.5,2,12c0,2.9,1.2,5.4,3.1,7.2l1.4-1.4C5,16.4,4,14.3,4,12
		c0-4.4,3.6-8,8-8s8,3.6,8,8c0,2.3-1,4.4-2.5,5.8l1.4,1.4c1.9-1.8,3.1-4.4,3.1-7.2C22,6.5,17.5,2,12,2z"/>
</g>
</svg>
